<svg width="62" height="62" viewBox="0 0 62 62" fill="none" xmlns="http://www.w3.org/2000/svg">
<path d="M9.46875 3.31639L14.6484 12.293C14.918 12.7617 14.5781 13.3476 14.0391 13.3476H11.4141V26.7539H15.7031V16.2305C15.7031 15.8437 16.0195 15.5273 16.4062 15.5273H43.9687C44.3555 15.5273 44.6719 15.8437 44.6719 16.2305V48.5976H46.6523V45.9609C46.6523 45.4336 47.2266 45.0469 47.7539 45.375L56.7187 50.5547C57.1758 50.8125 57.2109 51.5039 56.6836 51.7851L47.707 56.9648C47.2383 57.2344 46.6523 56.8945 46.6523 56.3555V53.7305H6.96093C6.57421 53.7305 6.25781 53.414 6.25781 53.0273V13.3476H3.63281C3.10546 13.3476 2.71875 12.7734 3.04687 12.2461L8.22656 3.28123C8.50781 2.78904 9.22265 2.8242 9.46875 3.31639ZM11.4141 28.1601V48.5976H32.2148V28.1601H11.4141ZM12.8203 11.9414L8.83593 5.03904L4.85156 11.9414H6.97265C7.35937 11.9414 7.67578 12.2578 7.67578 12.6445V52.3359H47.3672C47.7539 52.3359 48.0703 52.6523 48.0703 53.039V55.1601L54.9727 51.1758L48.0703 47.1914V49.3125C48.0703 49.6992 47.7539 50.0156 47.3672 50.0156H10.7109C10.3242 50.0156 10.0078 49.6992 10.0078 49.3125V12.6445C10.0078 12.2578 10.3242 11.9414 10.7109 11.9414H12.8203ZM32.625 26.7539L35.8242 23.5547H35.4023C35.0156 23.5547 34.6992 23.2383 34.6992 22.8515C34.6992 22.4648 35.0156 22.1484 35.4023 22.1484H37.5117C37.8984 22.1484 38.2148 22.4648 38.2148 22.8515L38.2266 24.8437C38.2266 25.2305 37.9102 25.5469 37.5234 25.5469C37.1367 25.5469 36.8203 25.2305 36.8203 24.8437V24.539L33.6211 27.7383V48.5859H43.2773V16.9219H17.1094V26.7422H32.625V26.7539ZM25.7227 36.0351C25.418 35.8008 25.3594 35.3555 25.5937 35.0508C25.8281 34.7461 26.2734 34.6875 26.5781 34.9219L30.3633 37.8164C30.7383 38.0976 30.7266 38.6601 30.3516 38.9414L26.5781 41.8359C26.2734 42.0703 25.8281 42.0117 25.5937 41.707C25.3594 41.4023 25.418 40.957 25.7227 40.7226L28.7812 38.3789L25.7227 36.0351ZM20.5078 42.0351C20.3203 42.375 19.8867 42.4922 19.5586 42.293C19.2187 42.1055 19.1016 41.6719 19.3008 41.332L23.1211 34.7109C23.3086 34.3711 23.7422 34.2539 24.082 34.4531C24.4219 34.6406 24.5391 35.0742 24.3398 35.414L20.5078 42.0351ZM17.0391 34.9219C17.3437 34.6875 17.7891 34.7461 18.0234 35.0508C18.2578 35.3555 18.1992 35.8008 17.8945 36.0351L14.8359 38.3789L17.8945 40.7226C18.1992 40.957 18.2578 41.4023 18.0234 41.707C17.7891 42.0117 17.3437 42.0703 17.0391 41.8359L13.2656 38.9414C12.9023 38.6601 12.8789 38.1094 13.2539 37.8164L17.0391 34.9219Z" fill="#003BF2"/>
</svg>
